<svg width="28" height="29" viewBox="0 0 28 29" fill="none" xmlns="http://www.w3.org/2000/svg">
<g clip-path="url(#clip0_85_191)">
<path d="M5.3252 12.3347C5.3252 8.3884 8.5332 5.18039 12.4795 5.18039C16.4258 5.18039 19.6338 8.3884 19.6338 12.3347C19.6338 13.8728 19.1328 15.2966 18.2979 16.448L22.3145 20.4734C22.5518 20.7195 22.6748 21.0446 22.6748 21.3962C22.6748 22.1257 22.1387 22.6882 21.3916 22.6882C21.0488 22.6882 20.7061 22.5739 20.46 22.3191L16.417 18.2761C15.292 19.0407 13.9473 19.489 12.4795 19.489C8.5332 19.489 5.3252 16.281 5.3252 12.3347ZM7.18848 12.3347C7.18848 15.2527 9.55273 17.6257 12.4795 17.6257C15.3975 17.6257 17.7705 15.2527 17.7705 12.3347C17.7705 9.41672 15.3975 7.04367 12.4795 7.04367C9.55273 7.04367 7.18848 9.41672 7.18848 12.3347Z" fill="#3C3C43" fill-opacity="0.6"/>
</g>
<defs>
<clipPath id="clip0_85_191">
<rect width="28" height="28" fill="white" transform="translate(0 0.279999)"/>
</clipPath>
</defs>
</svg>
