<svg width="33" height="33" viewBox="0 0 33 33" fill="none" xmlns="http://www.w3.org/2000/svg">
<path d="M16.9053 30.7396C9.01281 30.7396 2.59766 24.3245 2.59766 16.432C2.59766 8.53948 9.01281 2.12433 16.9053 2.12433C24.7978 2.12433 31.213 8.53948 31.213 16.432C31.213 24.3245 24.7978 30.7396 16.9053 30.7396ZM16.9053 4.12075C10.1175 4.12075 4.59407 9.64417 4.59407 16.432C4.59407 23.2198 10.1175 28.7432 16.9053 28.7432C23.6931 28.7432 29.2166 23.2198 29.2166 16.432C29.2166 9.64417 23.6931 4.12075 16.9053 4.12075Z" fill="#292D32"/>
<path d="M13.1375 21.1967C12.8846 21.1967 12.6317 21.1036 12.4321 20.9039C12.0461 20.518 12.0461 19.8791 12.4321 19.4931L19.9652 11.96C20.3512 11.574 20.99 11.574 21.376 11.96C21.762 12.346 21.762 12.9848 21.376 13.3708L13.8429 20.9039C13.6565 21.1036 13.3903 21.1967 13.1375 21.1967Z" fill="#292D32"/>
<path d="M20.6706 21.1967C20.4177 21.1967 20.1648 21.1036 19.9652 20.9039L12.4321 13.3708C12.0461 12.9848 12.0461 12.346 12.4321 11.96C12.818 11.574 13.4569 11.574 13.8429 11.96L21.376 19.4931C21.762 19.8791 21.762 20.518 21.376 20.9039C21.1764 21.1036 20.9235 21.1967 20.6706 21.1967Z" fill="#292D32"/>
</svg>
