<svg width="21" height="21" viewBox="0 0 21 21" fill="none" xmlns="http://www.w3.org/2000/svg">
<path d="M20.0373 9.93428L9.83753 1.08167C9.75924 1.01418 9.65935 0.976379 9.55405 0.976379H7.16474C6.96496 0.976379 6.87316 1.22476 7.02435 1.35435L16.479 9.56171H0.67985C0.56106 9.56171 0.463867 9.6589 0.463867 9.77769V11.3976C0.463867 11.5164 0.56106 11.6135 0.67985 11.6135H16.4763L7.02165 19.8209C6.87046 19.9532 6.96226 20.1989 7.16204 20.1989H9.63235C9.68364 20.1989 9.73494 20.18 9.77274 20.1449L20.0373 11.241C20.1308 11.1597 20.2057 11.0593 20.2571 10.9466C20.3084 10.8339 20.335 10.7115 20.335 10.5876C20.335 10.4638 20.3084 10.3414 20.2571 10.2286C20.2057 10.1159 20.1308 10.0156 20.0373 9.93428Z" fill="white"/>
</svg>
