<svg width="101" height="101" viewBox="0 0 101 101" fill="none" xmlns="http://www.w3.org/2000/svg">
<circle cx="50.8931" cy="50.5042" r="48.9788" fill="white" stroke="#CBD0DC" stroke-width="2.12951"/>
<path d="M41.6228 65.4834H37.7044C31.7045 65.0549 29.0107 60.4427 29.0107 56.3408C29.0107 52.2388 31.7045 47.6062 37.6024 47.1981C38.4391 47.1164 39.1737 47.7695 39.235 48.6266C39.2962 49.4633 38.6636 50.198 37.8065 50.2592C33.8474 50.5449 32.0719 53.5245 32.0719 56.3612C32.0719 59.1978 33.8474 62.1774 37.8065 62.4631H41.6228C42.4595 62.4631 43.1533 63.157 43.1533 63.9937C43.1533 64.8304 42.4595 65.4834 41.6228 65.4834Z" fill="#292D32"/>
<path d="M60.4182 65.4834C60.3774 65.4834 60.357 65.4834 60.3162 65.4834C59.4795 65.4834 58.704 64.7895 58.704 63.9528C58.704 63.0752 59.3571 62.4222 60.2142 62.4222C62.7243 62.4222 64.9692 61.5447 66.7243 59.9733C69.9079 57.1978 70.112 53.1979 69.2548 50.3816C68.3977 47.5857 66.01 44.3817 61.8468 43.8715C61.1733 43.7899 60.6427 43.2797 60.5202 42.6062C59.7039 37.7083 57.0714 34.3206 53.0714 33.0962C48.9491 31.8105 44.1327 33.0758 41.1328 36.2186C38.2145 39.2593 37.541 43.5246 39.2349 48.2184C39.5206 49.0143 39.1125 49.8918 38.3166 50.1775C37.5207 50.4632 36.6431 50.0551 36.3574 49.2591C34.2962 43.5041 35.235 37.994 38.9288 34.1166C42.7043 30.1574 48.7654 28.586 53.9694 30.1778C58.7448 31.6472 62.112 35.5859 63.3365 41.0552C67.4997 41.994 70.8466 45.1572 72.1731 49.5245C73.6221 54.2795 72.316 59.1774 68.7446 62.2794C66.4794 64.3201 63.5202 65.4834 60.4182 65.4834Z" fill="#292D32"/>
<path d="M50.8878 71.4833C46.7858 71.4833 42.9492 69.2997 40.8472 65.7691C40.6227 65.4222 40.3982 65.0141 40.2146 64.5651C39.5207 63.1161 39.1533 61.4631 39.1533 59.7488C39.1533 53.2796 44.4185 48.0143 50.8878 48.0143C57.3571 48.0143 62.6223 53.2796 62.6223 59.7488C62.6223 61.4835 62.255 63.1161 61.5203 64.6263C61.3571 65.0141 61.1326 65.4222 60.8877 65.81C58.8265 69.2997 54.9898 71.4833 50.8878 71.4833ZM50.8878 51.0755C46.1124 51.0755 42.2145 54.9734 42.2145 59.7488C42.2145 61.0141 42.4798 62.1978 42.99 63.2794C43.1533 63.6263 43.2961 63.912 43.4593 64.1773C45.0103 66.8099 47.847 68.4222 50.8674 68.4222C53.8877 68.4222 56.7244 66.81 58.255 64.2182C58.4387 63.912 58.602 63.6263 58.7245 63.3406C59.2755 62.2182 59.5407 61.0345 59.5407 59.7692C59.5611 54.9734 55.6632 51.0755 50.8878 51.0755Z" fill="#292D32"/>
<path d="M49.7256 63.2998C49.3378 63.2998 48.9502 63.157 48.644 62.8509L46.6236 60.8305C46.0317 60.2387 46.0317 59.2591 46.6236 58.6673C47.2154 58.0754 48.195 58.0754 48.7868 58.6673L49.7664 59.6468L53.0316 56.6265C53.6643 56.0551 54.6235 56.0959 55.1949 56.7081C55.7663 57.3203 55.7255 58.2999 55.1133 58.8713L50.7664 62.8917C50.4603 63.157 50.0929 63.2998 49.7256 63.2998Z" fill="#292D32"/>
</svg>
