<svg width="27" height="26" viewBox="0 0 27 26" fill="none" xmlns="http://www.w3.org/2000/svg">
<path d="M13.6791 7.71751C13.0935 7.71751 12.6144 7.23837 12.6144 6.65276L12.6144 2.39374C12.6144 1.80812 13.0935 1.32898 13.6791 1.32898C14.2647 1.32898 14.7439 1.80812 14.7439 2.39374L14.7439 6.65276C14.7439 7.23837 14.2647 7.71751 13.6791 7.71751ZM13.6791 24.7536C13.0935 24.7536 12.6144 24.2745 12.6144 23.6889L12.6144 19.4298C12.6144 18.8442 13.0935 18.3651 13.6791 18.3651C14.2647 18.3651 14.7439 18.8442 14.7439 19.4298L14.7439 23.6889C14.7439 24.2745 14.2647 24.7536 13.6791 24.7536ZM24.3267 14.106L20.0676 14.106C19.482 14.106 19.0029 13.6269 19.0029 13.0413C19.0029 12.4557 19.482 11.9765 20.0676 11.9765L24.3267 11.9765C24.9123 11.9765 25.3914 12.4557 25.3914 13.0413C25.3914 13.6269 24.9123 14.106 24.3267 14.106ZM7.29058 14.106L3.03155 14.106C2.44594 14.106 1.9668 13.6269 1.9668 13.0413C1.9668 12.4557 2.44594 11.9765 3.03155 11.9765L7.29058 11.9765C7.87619 11.9765 8.35533 12.4557 8.35533 13.0413C8.35533 13.6269 7.87619 14.106 7.29058 14.106ZM21.2069 21.6339C20.9301 21.6339 20.6639 21.5274 20.451 21.3251L17.4377 18.3118C17.3391 18.2133 17.2609 18.0962 17.2076 17.9674C17.1542 17.8386 17.1268 17.7006 17.1268 17.5612C17.1268 17.4218 17.1542 17.2837 17.2076 17.1549C17.2609 17.0261 17.3391 16.9091 17.4377 16.8105C17.5363 16.712 17.6533 16.6338 17.7821 16.5804C17.9109 16.5271 18.0489 16.4996 18.1884 16.4996C18.3278 16.4996 18.4658 16.5271 18.5946 16.5804C18.7234 16.6338 18.8404 16.712 18.939 16.8105L21.9523 19.8238C22.1008 19.9725 22.2019 20.162 22.2426 20.3682C22.2832 20.5745 22.2617 20.7881 22.1807 20.9821C22.0997 21.1761 21.9628 21.3416 21.7876 21.4576C21.6123 21.5737 21.4065 21.635 21.1963 21.6339H21.2069ZM9.16455 9.59149C8.88771 9.59149 8.62152 9.48501 8.40857 9.28271L5.39531 6.26945C5.29673 6.17087 5.21854 6.05384 5.16519 5.92504C5.11184 5.79625 5.08438 5.6582 5.08438 5.51879C5.08438 5.37938 5.11184 5.24134 5.16519 5.11254C5.21854 4.98375 5.29673 4.86672 5.39531 4.76814C5.49389 4.66956 5.61092 4.59137 5.73971 4.53802C5.86851 4.48467 6.00655 4.45721 6.14596 4.45721C6.28537 4.45721 6.42342 4.48467 6.55221 4.53802C6.68101 4.59137 6.79804 4.66956 6.89662 4.76814L9.90988 7.7814C10.0585 7.93009 10.1595 8.11959 10.2002 8.32583C10.2408 8.53206 10.2193 8.74573 10.1383 8.9397C10.0573 9.13367 9.92045 9.29919 9.74518 9.41524C9.56991 9.53129 9.3641 9.59264 9.1539 9.59149H9.16455ZM6.15129 21.6339C5.87445 21.6339 5.60826 21.5274 5.39531 21.3251C5.2966 21.2266 5.21829 21.1096 5.16486 20.9808C5.11143 20.852 5.08393 20.7139 5.08393 20.5744C5.08393 20.435 5.11143 20.2969 5.16486 20.1681C5.21829 20.0393 5.2966 19.9223 5.39531 19.8238L8.40857 16.8105C8.50715 16.712 8.62418 16.6338 8.75297 16.5804C8.88177 16.5271 9.01981 16.4996 9.15922 16.4996C9.29863 16.4996 9.43668 16.5271 9.56547 16.5804C9.69427 16.6338 9.8113 16.712 9.90988 16.8105C10.0085 16.9091 10.0866 17.0261 10.14 17.1549C10.1933 17.2837 10.2208 17.4218 10.2208 17.5612C10.2208 17.7006 10.1933 17.8386 10.14 17.9674C10.0866 18.0962 10.0085 18.2133 9.90988 18.3118L6.89662 21.3251C6.68367 21.538 6.41748 21.6339 6.14064 21.6339H6.15129ZM18.1937 9.59149C17.9168 9.59149 17.6506 9.48501 17.4377 9.28271C17.339 9.1842 17.2607 9.0672 17.2073 8.93839C17.1538 8.80958 17.1263 8.6715 17.1263 8.53205C17.1263 8.3926 17.1538 8.25452 17.2073 8.12572C17.2607 7.99691 17.339 7.8799 17.4377 7.7814L20.451 4.76814C20.5495 4.66956 20.6666 4.59137 20.7954 4.53802C20.9242 4.48467 21.0622 4.45721 21.2016 4.45721C21.341 4.45721 21.4791 4.48467 21.6079 4.53802C21.7367 4.59137 21.8537 4.66956 21.9523 4.76814C22.0508 4.86672 22.129 4.98375 22.1824 5.11254C22.2357 5.24134 22.2632 5.37938 22.2632 5.51879C22.2632 5.6582 22.2357 5.79625 22.1824 5.92504C22.129 6.05384 22.0508 6.17087 21.9523 6.26945L18.939 9.28271C18.7261 9.49566 18.4599 9.59149 18.183 9.59149H18.1937Z" fill="#F76B05"/>
</svg>
