<svg width="37" height="37" viewBox="0 0 37 37" fill="none" xmlns="http://www.w3.org/2000/svg">
<g clip-path="url(#clip0_85_216)">
<path d="M33.3 0H3.7C1.65655 0 0 1.65655 0 3.7V33.3C0 35.3435 1.65655 37 3.7 37H33.3C35.3435 37 37 35.3435 37 33.3V3.7C37 1.65655 35.3435 0 33.3 0Z" fill="#594AF1"/>
<path d="M18.5025 6.69701C20.5893 6.69701 22.4097 7.10771 23.9637 7.92911C25.5177 8.75051 26.7165 9.97151 27.5601 11.5921C28.4259 13.1905 28.8588 15.133 28.8588 17.4196V30.34H24.5298V24.346H12.4086V30.34H8.14619V17.4196C8.14619 15.133 8.56799 13.1905 9.41159 11.5921C10.2774 9.97151 11.4873 8.75051 13.0413 7.92911C14.5953 7.10771 16.4157 6.69701 18.5025 6.69701ZM24.5298 20.7163V17.02C24.5298 14.8666 23.997 13.246 22.9314 12.1582C21.8658 11.0482 20.3784 10.4932 18.4692 10.4932C16.56 10.4932 15.0726 11.0482 14.007 12.1582C12.9414 13.246 12.4086 14.8666 12.4086 17.02V20.7163H24.5298Z" fill="white"/>
</g>
<defs>
<clipPath id="clip0_85_216">
<rect width="37" height="37" fill="white"/>
</clipPath>
</defs>
</svg>
