<svg width="181" height="60" viewBox="0 0 181 60" fill="none" xmlns="http://www.w3.org/2000/svg">
<path d="M66.8313 14.2852V31.5013H62.3545V24.2703H61.0146V31.5013H56.5378V14.2852H61.0146V20.4422H62.3545V14.2852H66.8313ZM72.5681 22.856H68.5379V21.9096C68.5379 20.8179 68.6619 19.9778 68.91 19.3894C69.1653 18.7939 69.6721 18.2693 70.4307 17.8156C71.1892 17.3619 72.1746 17.135 73.3869 17.135C74.8402 17.135 75.9355 17.3938 76.6727 17.9113C77.41 18.4217 77.8531 19.0527 78.002 19.8041C78.1508 20.5485 78.2253 22.0869 78.2253 24.4192V31.5013H74.0462V30.2466C73.7839 30.7499 73.4436 31.1292 73.0253 31.3844C72.6142 31.6325 72.1215 31.7566 71.5472 31.7566C70.7958 31.7566 70.1046 31.5474 69.4736 31.1292C68.8498 30.7038 68.5379 29.7787 68.5379 28.3537V27.1946C68.5379 26.1383 68.7045 25.4188 69.0376 25.036C69.3708 24.6532 70.1967 24.2065 71.5153 23.6961C72.9261 23.1432 73.6811 22.771 73.7803 22.5796C73.8796 22.3882 73.9292 21.9982 73.9292 21.4098C73.9292 20.6726 73.8725 20.194 73.7591 19.9743C73.6527 19.7474 73.472 19.634 73.2167 19.634C72.9261 19.634 72.7453 19.7297 72.6744 19.9211C72.6035 20.1054 72.5681 20.591 72.5681 21.3779V22.856ZM73.9292 24.7914C73.2416 25.2947 72.841 25.7165 72.7276 26.0568C72.6212 26.3971 72.5681 26.8863 72.5681 27.5243C72.5681 28.2545 72.6142 28.7259 72.7063 28.9386C72.8056 29.1513 72.997 29.2576 73.2805 29.2576C73.5499 29.2576 73.7236 29.1761 73.8016 29.013C73.8867 28.8429 73.9292 28.4034 73.9292 27.6944V24.7914ZM84.4512 15.5081V17.7305H85.6103V19.9636H84.4512V27.5137C84.4512 28.4423 84.4972 28.9599 84.5894 29.0662C84.6887 29.1725 85.0892 29.2257 85.791 29.2257V31.5013H84.0577C83.0794 31.5013 82.3811 31.4624 81.9629 31.3844C81.5446 31.2993 81.176 31.1114 80.8569 30.8208C80.5379 30.523 80.3394 30.1863 80.2614 29.8106C80.1835 29.4277 80.1445 28.5345 80.1445 27.1308V19.9636H79.2193V17.7305H80.1445V15.5081H84.4512ZM91.3045 15.5081V17.7305H92.4635V19.9636H91.3045V27.5137C91.3045 28.4423 91.3505 28.9599 91.4427 29.0662C91.5419 29.1725 91.9425 29.2257 92.6443 29.2257V31.5013H90.911C89.9327 31.5013 89.2344 31.4624 88.8161 31.3844C88.3979 31.2993 88.0292 31.1114 87.7102 30.8208C87.3912 30.523 87.1927 30.1863 87.1147 29.8106C87.0367 29.4277 86.9978 28.5345 86.9978 27.1308V19.9636H86.0726V17.7305H86.9978V15.5081H91.3045ZM103.347 22.3456V25.8016C103.347 27.0706 103.283 28.0028 103.156 28.5983C103.028 29.1867 102.755 29.7397 102.337 30.2572C101.919 30.7676 101.38 31.1469 100.72 31.395C100.068 31.636 99.3168 31.7566 98.4661 31.7566C97.5162 31.7566 96.7115 31.6538 96.0522 31.4482C95.3929 31.2355 94.879 30.92 94.5103 30.5018C94.1488 30.0764 93.89 29.566 93.7341 28.9705C93.5781 28.3679 93.5001 27.4676 93.5001 26.2695V22.654C93.5001 21.3425 93.6419 20.3181 93.9255 19.5808C94.2091 18.8435 94.7195 18.2516 95.4568 17.805C96.194 17.3584 97.1369 17.135 98.2854 17.135C99.2495 17.135 100.075 17.2804 100.763 17.571C101.458 17.8546 101.993 18.2268 102.369 18.6876C102.744 19.1484 103 19.6234 103.134 20.1125C103.276 20.6017 103.347 21.346 103.347 22.3456ZM99.051 21.2822C99.051 20.5591 99.012 20.1054 98.934 19.9211C98.856 19.7297 98.6894 19.634 98.4342 19.634C98.179 19.634 98.0089 19.7297 97.9238 19.9211C97.8387 20.1054 97.7962 20.5591 97.7962 21.2822V27.6519C97.7962 28.3183 97.8387 28.7543 97.9238 28.9599C98.0089 29.1584 98.1755 29.2576 98.4236 29.2576C98.6788 29.2576 98.8454 29.1654 98.9234 28.9811C99.0085 28.7968 99.051 28.3998 99.051 27.7901V21.2822ZM109.286 17.3903L109.116 19.2405C109.74 17.9149 110.643 17.213 111.827 17.135V22.101C111.04 22.101 110.463 22.2074 110.094 22.4201C109.725 22.6327 109.499 22.9305 109.413 23.3133C109.328 23.689 109.286 24.561 109.286 25.9292V31.5013H104.99V17.3903H109.286ZM117.436 14.2852V16.5289H113.013V14.2852H117.436ZM117.436 17.3903V31.5013H113.013V17.3903H117.436ZM133.695 14.2852V31.5013H129.218V24.2703H127.878V31.5013H123.402V14.2852H127.878V20.4422H129.218V14.2852H133.695ZM139.432 22.856H135.402V21.9096C135.402 20.8179 135.526 19.9778 135.774 19.3894C136.029 18.7939 136.536 18.2693 137.294 17.8156C138.053 17.3619 139.038 17.135 140.251 17.135C141.704 17.135 142.799 17.3938 143.537 17.9113C144.274 18.4217 144.717 19.0527 144.866 19.8041C145.015 20.5485 145.089 22.0869 145.089 24.4192V31.5013H140.91V30.2466C140.648 30.7499 140.307 31.1292 139.889 31.3844C139.478 31.6325 138.985 31.7566 138.411 31.7566C137.66 31.7566 136.968 31.5474 136.337 31.1292C135.714 30.7038 135.402 29.7787 135.402 28.3537V27.1946C135.402 26.1383 135.568 25.4188 135.901 25.036C136.235 24.6532 137.061 24.2065 138.379 23.6961C139.79 23.1432 140.545 22.771 140.644 22.5796C140.743 22.3882 140.793 21.9982 140.793 21.4098C140.793 20.6726 140.736 20.194 140.623 19.9743C140.517 19.7474 140.336 19.634 140.081 19.634C139.79 19.634 139.609 19.7297 139.538 19.9211C139.467 20.1054 139.432 20.591 139.432 21.3779V22.856ZM140.793 24.7914C140.105 25.2947 139.705 25.7165 139.591 26.0568C139.485 26.3971 139.432 26.8863 139.432 27.5243C139.432 28.2545 139.478 28.7259 139.57 28.9386C139.669 29.1513 139.861 29.2576 140.144 29.2576C140.414 29.2576 140.587 29.1761 140.665 29.013C140.75 28.8429 140.793 28.4034 140.793 27.6944V24.7914ZM151.155 17.3903L151.081 18.6876C151.393 18.1701 151.772 17.7837 152.219 17.5285C152.673 17.2662 153.194 17.135 153.782 17.135C154.519 17.135 155.122 17.3087 155.59 17.6561C156.058 18.0035 156.359 18.443 156.494 18.9747C156.628 19.4993 156.696 20.3784 156.696 21.6119V31.5013H152.4V21.7289C152.4 20.7576 152.368 20.1657 152.304 19.953C152.24 19.7403 152.063 19.634 151.772 19.634C151.467 19.634 151.276 19.7581 151.198 20.0062C151.12 20.2472 151.081 20.8994 151.081 21.9628V31.5013H146.785V17.3903H151.155ZM165.091 17.3903V20.5166L161.922 28.6727H165.091V31.5013H157.764V28.5451L161.007 20.2189H158.094V17.3903H165.091ZM175.996 22.3456V25.8016C175.996 27.0706 175.932 28.0028 175.804 28.5983C175.677 29.1867 175.404 29.7397 174.985 30.2572C174.567 30.7676 174.028 31.1469 173.369 31.395C172.717 31.636 171.965 31.7566 171.115 31.7566C170.165 31.7566 169.36 31.6538 168.701 31.4482C168.042 31.2355 167.528 30.92 167.159 30.5018C166.797 30.0764 166.539 29.566 166.383 28.9705C166.227 28.3679 166.149 27.4676 166.149 26.2695V22.654C166.149 21.3425 166.291 20.3181 166.574 19.5808C166.858 18.8435 167.368 18.2516 168.105 17.805C168.843 17.3584 169.785 17.135 170.934 17.135C171.898 17.135 172.724 17.2804 173.412 17.571C174.106 17.8546 174.642 18.2268 175.017 18.6876C175.393 19.1484 175.648 19.6234 175.783 20.1125C175.925 20.6017 175.996 21.346 175.996 22.3456ZM171.7 21.2822C171.7 20.5591 171.661 20.1054 171.583 19.9211C171.505 19.7297 171.338 19.634 171.083 19.634C170.828 19.634 170.657 19.7297 170.572 19.9211C170.487 20.1054 170.445 20.5591 170.445 21.2822V27.6519C170.445 28.3183 170.487 28.7543 170.572 28.9599C170.657 29.1584 170.824 29.2576 171.072 29.2576C171.327 29.2576 171.494 29.1654 171.572 28.9811C171.657 28.7968 171.7 28.3998 171.7 27.7901V21.2822Z" fill="#EA0118"/>
<path d="M60.2183 49.4251V48.6063L60.9201 48.5089L64.2278 39.9634H65.3261L68.5753 48.5089L69.2706 48.6063V49.4251H66.5543V48.6063L67.2691 48.4829L66.6453 46.7413H62.8567L62.2133 48.4829L62.9282 48.6063V49.4251H60.2183ZM63.2531 45.669H66.2554L64.8647 41.822L64.7867 41.6075H64.7477L64.6697 41.822L63.2531 45.669ZM72.9714 49.5616C72.2089 49.5616 71.6132 49.3168 71.1843 48.8273C70.7554 48.3377 70.541 47.5752 70.541 46.5398V43.4011L69.7351 43.2191V42.3938H70.541H71.8212V46.5528C71.8212 47.3023 71.9316 47.8179 72.1526 48.0995C72.3735 48.3811 72.7179 48.5219 73.1858 48.5219C73.6407 48.5219 74.0155 48.4309 74.3101 48.2489C74.609 48.0626 74.8343 47.8005 74.9859 47.4626V43.4011L74.0436 43.2191V42.3938H74.9859H76.2661V48.4244L77.0719 48.6063V49.4251H75.1159L75.0314 48.3854C74.8104 48.7623 74.5245 49.0526 74.1736 49.2562C73.827 49.4598 73.4263 49.5616 72.9714 49.5616ZM80.5907 49.5356C80.0708 49.5356 79.6571 49.384 79.3495 49.0807C79.0462 48.7731 78.8946 48.2836 78.8946 47.6121V43.3426H77.7833V42.3938H78.8946V40.6977H80.1748V42.3938H81.7019V43.3426H80.1748V47.6121C80.1748 47.95 80.2419 48.1991 80.3762 48.3594C80.5105 48.5197 80.6903 48.5998 80.9156 48.5998C81.0672 48.5998 81.2362 48.5868 81.4225 48.5608C81.6088 48.5305 81.7539 48.5045 81.8579 48.4829L82.0333 49.3212C81.847 49.3775 81.6174 49.4273 81.3445 49.4706C81.0759 49.514 80.8246 49.5356 80.5907 49.5356ZM82.8228 49.4251V48.6063L83.882 48.4244V40.2948L82.8228 40.1129V39.2876H85.1622V43.3296C85.4048 42.9917 85.7016 42.7296 86.0525 42.5433C86.4034 42.357 86.7933 42.2638 87.2222 42.2638C87.976 42.2638 88.5609 42.4891 88.9768 42.9397C89.3927 43.3902 89.6006 44.0834 89.6006 45.0192V48.4244L90.6599 48.6063V49.4251H87.2612V48.6063L88.3205 48.4244V45.0062C88.3205 44.4257 88.1948 43.9968 87.9435 43.7195C87.6966 43.4422 87.3262 43.3036 86.8323 43.3036C86.4814 43.3036 86.1608 43.3881 85.8705 43.557C85.5846 43.7217 85.3485 43.9469 85.1622 44.2329V48.4244L86.2215 48.6063V49.4251H82.8228ZM94.744 49.5616C94.0942 49.5616 93.5332 49.41 93.0609 49.1067C92.5931 48.7991 92.2313 48.3767 91.9757 47.8395C91.7201 47.298 91.5923 46.6806 91.5923 45.9875V45.8445C91.5923 45.1513 91.7201 44.5361 91.9757 43.9989C92.2313 43.4574 92.5931 43.0328 93.0609 42.7252C93.5332 42.4176 94.0899 42.2638 94.731 42.2638C95.3809 42.2638 95.9398 42.4176 96.4076 42.7252C96.8799 43.0328 97.2438 43.4552 97.4994 43.9924C97.755 44.5296 97.8828 45.147 97.8828 45.8445V45.9875C97.8828 46.685 97.755 47.3045 97.4994 47.846C97.2438 48.3832 96.882 48.8035 96.4141 49.1067C95.9463 49.41 95.3896 49.5616 94.744 49.5616ZM94.744 48.5608C95.1513 48.5608 95.4914 48.4504 95.7643 48.2294C96.0416 48.0041 96.2495 47.6987 96.3881 47.3131C96.5311 46.9232 96.6026 46.4813 96.6026 45.9875V45.8445C96.6026 45.3506 96.5311 44.9109 96.3881 44.5253C96.2495 44.1354 96.0416 43.83 95.7643 43.609C95.487 43.3837 95.1426 43.2711 94.731 43.2711C94.3238 43.2711 93.9816 43.3837 93.7043 43.609C93.427 43.83 93.2191 44.1354 93.0804 44.5253C92.9418 44.9109 92.8725 45.3506 92.8725 45.8445V45.9875C92.8725 46.4813 92.9418 46.9232 93.0804 47.3131C93.2191 47.6987 93.427 48.0041 93.7043 48.2294C93.9859 48.4504 94.3325 48.5608 94.744 48.5608ZM98.9906 49.4251V48.6063L100.05 48.4244V43.4011L98.9906 43.2191V42.3938H101.194L101.304 43.2906L101.317 43.4141C101.516 43.0545 101.761 42.7729 102.051 42.5693C102.346 42.3657 102.682 42.2638 103.059 42.2638C103.193 42.2638 103.329 42.2768 103.468 42.3028C103.611 42.3245 103.713 42.3462 103.774 42.3678L103.605 43.557L102.714 43.5051C102.376 43.4834 102.093 43.5614 101.863 43.739C101.633 43.9123 101.456 44.1462 101.33 44.4408V48.4244L102.389 48.6063V49.4251H98.9906ZM104.641 49.4251V48.6063L105.7 48.4244V43.4011L104.641 43.2191V42.3938H106.98V48.4244L108.04 48.6063V49.4251H104.641ZM105.635 40.6587V39.2876H106.98V40.6587H105.635ZM109.147 49.4251V48.5284L112.975 43.3816H110.356L110.194 44.5643H109.232V42.3938H114.561V43.2646L110.694 48.4504H113.69L113.859 47.2612H114.814V49.4251H109.147ZM118.996 49.5616C118.346 49.5616 117.781 49.4143 117.3 49.1197C116.819 48.8208 116.446 48.4071 116.182 47.8785C115.922 47.35 115.792 46.7391 115.792 46.0459V45.76C115.792 45.0928 115.928 44.4971 116.201 43.9729C116.479 43.4444 116.845 43.0285 117.3 42.7252C117.759 42.4176 118.259 42.2638 118.801 42.2638C119.433 42.2638 119.962 42.3938 120.386 42.6538C120.815 42.9137 121.138 43.2798 121.355 43.752C121.571 44.2199 121.68 44.7723 121.68 45.4091V46.2084H117.118L117.098 46.2409C117.107 46.6915 117.185 47.0922 117.332 47.4431C117.484 47.7897 117.7 48.0626 117.982 48.2619C118.264 48.4612 118.601 48.5608 118.996 48.5608C119.429 48.5608 119.808 48.5002 120.133 48.3789C120.462 48.2533 120.746 48.0821 120.984 47.8655L121.485 48.6973C121.233 48.9399 120.9 49.1457 120.484 49.3147C120.072 49.4793 119.576 49.5616 118.996 49.5616ZM117.157 45.2076H120.399V45.0387C120.399 44.7008 120.339 44.3997 120.217 44.1354C120.1 43.8668 119.923 43.6567 119.685 43.5051C119.451 43.3491 119.156 43.2711 118.801 43.2711C118.515 43.2711 118.255 43.3556 118.021 43.5245C117.787 43.6892 117.594 43.9145 117.443 44.2004C117.291 44.4863 117.191 44.8112 117.144 45.1752L117.157 45.2076ZM125.835 49.5616C125.263 49.5616 124.772 49.4208 124.36 49.1392C123.953 48.8533 123.641 48.4569 123.424 47.95C123.208 47.4431 123.099 46.8518 123.099 46.1759V46.0394C123.099 45.2856 123.208 44.625 123.424 44.0574C123.641 43.4899 123.955 43.0502 124.367 42.7382C124.778 42.422 125.272 42.2638 125.848 42.2638C126.264 42.2638 126.63 42.3418 126.946 42.4978C127.267 42.6494 127.54 42.8704 127.765 43.1606V40.2948L126.706 40.1129V39.2876H127.765H129.045V48.4244L130.105 48.6063V49.4251H127.934L127.83 48.5868C127.601 48.9074 127.319 49.15 126.985 49.3147C126.656 49.4793 126.273 49.5616 125.835 49.5616ZM126.16 48.5219C126.541 48.5219 126.862 48.4352 127.122 48.2619C127.382 48.0886 127.596 47.8439 127.765 47.5276V44.2654C127.601 43.9708 127.386 43.7368 127.122 43.5635C126.858 43.3902 126.541 43.3036 126.173 43.3036C125.766 43.3036 125.43 43.4206 125.166 43.6545C124.902 43.8841 124.704 44.2047 124.575 44.6163C124.445 45.0235 124.38 45.4979 124.38 46.0394V46.1759C124.38 46.8821 124.525 47.4496 124.815 47.8785C125.105 48.3074 125.554 48.5219 126.16 48.5219ZM134.614 49.4251V48.6063L135.674 48.4244V40.9707L134.614 40.7887V39.9634H135.674H138.318C139.155 39.9634 139.882 40.1627 140.502 40.5613C141.126 40.9598 141.611 41.5079 141.958 42.2054C142.304 42.9029 142.477 43.7 142.477 44.5968V44.7982C142.477 45.6734 142.311 46.4618 141.977 47.1637C141.644 47.8612 141.169 48.4135 140.554 48.8208C139.943 49.2237 139.22 49.4251 138.383 49.4251H134.614ZM136.954 48.4244H138.318C138.916 48.4244 139.43 48.2619 139.859 47.937C140.288 47.6077 140.617 47.1702 140.846 46.6243C141.08 46.0741 141.197 45.4654 141.197 44.7982V44.5838C141.197 43.895 141.08 43.2798 140.846 42.7382C140.617 42.1924 140.288 41.7613 139.859 41.445C139.43 41.1288 138.916 40.9707 138.318 40.9707H136.954V48.4244ZM146.718 49.5616C146.068 49.5616 145.502 49.4143 145.021 49.1197C144.541 48.8208 144.168 48.4071 143.904 47.8785C143.644 47.35 143.514 46.7391 143.514 46.0459V45.76C143.514 45.0928 143.65 44.4971 143.923 43.9729C144.201 43.4444 144.567 43.0285 145.021 42.7252C145.481 42.4176 145.981 42.2638 146.523 42.2638C147.155 42.2638 147.684 42.3938 148.108 42.6538C148.537 42.9137 148.86 43.2798 149.077 43.752C149.293 44.2199 149.401 44.7723 149.401 45.4091V46.2084H144.84L144.82 46.2409C144.829 46.6915 144.907 47.0922 145.054 47.4431C145.206 47.7897 145.422 48.0626 145.704 48.2619C145.985 48.4612 146.323 48.5608 146.718 48.5608C147.151 48.5608 147.53 48.5002 147.855 48.3789C148.184 48.2533 148.468 48.0821 148.706 47.8655L149.207 48.6973C148.955 48.9399 148.622 49.1457 148.206 49.3147C147.794 49.4793 147.298 49.5616 146.718 49.5616ZM144.879 45.2076H148.121V45.0387C148.121 44.7008 148.061 44.3997 147.939 44.1354C147.822 43.8668 147.645 43.6567 147.406 43.5051C147.172 43.3491 146.878 43.2711 146.523 43.2711C146.237 43.2711 145.977 43.3556 145.743 43.5245C145.509 43.6892 145.316 43.9145 145.164 44.2004C145.013 44.4863 144.913 44.8112 144.866 45.1752L144.879 45.2076ZM152.914 49.5616C152.182 49.5616 151.625 49.384 151.244 49.0287C150.862 48.6692 150.672 48.1644 150.672 47.5146C150.672 46.8474 150.945 46.3124 151.491 45.9095C152.036 45.5022 152.795 45.2986 153.765 45.2986H155.019V44.6098C155.019 44.1852 154.889 43.856 154.629 43.622C154.374 43.3881 154.012 43.2711 153.544 43.2711C153.249 43.2711 152.994 43.3079 152.777 43.3816C152.561 43.4509 152.364 43.5484 152.186 43.674L152.049 44.6553H151.062V43.0437C151.378 42.7881 151.746 42.5953 152.166 42.4653C152.587 42.331 153.052 42.2638 153.564 42.2638C154.417 42.2638 155.086 42.4675 155.572 42.8747C156.057 43.2819 156.299 43.8646 156.299 44.6228V48.0085C156.299 48.0995 156.299 48.1883 156.299 48.2749C156.304 48.3616 156.31 48.4482 156.319 48.5349L157.001 48.6063V49.4251H155.162C155.123 49.2345 155.093 49.0634 155.071 48.9118C155.05 48.7601 155.034 48.6085 155.026 48.4569C154.779 48.7731 154.469 49.0374 154.096 49.2497C153.728 49.4576 153.334 49.5616 152.914 49.5616ZM153.102 48.4894C153.527 48.4894 153.915 48.3876 154.265 48.1839C154.616 47.9803 154.868 47.7355 155.019 47.4496V46.1759H153.72C153.13 46.1759 152.688 46.3167 152.394 46.5983C152.099 46.8799 151.952 47.194 151.952 47.5406C151.952 47.8482 152.047 48.0843 152.238 48.2489C152.429 48.4092 152.717 48.4894 153.102 48.4894ZM158.064 49.4251V48.6063L159.123 48.4244V40.2948L158.064 40.1129V39.2876H160.403V48.4244L161.462 48.6063V49.4251H158.064ZM165.585 49.5616C164.936 49.5616 164.37 49.4143 163.889 49.1197C163.408 48.8208 163.036 48.4071 162.772 47.8785C162.512 47.35 162.382 46.7391 162.382 46.0459V45.76C162.382 45.0928 162.518 44.4971 162.791 43.9729C163.068 43.4444 163.434 43.0285 163.889 42.7252C164.349 42.4176 164.849 42.2638 165.391 42.2638C166.023 42.2638 166.552 42.3938 166.976 42.6538C167.405 42.9137 167.728 43.2798 167.944 43.752C168.161 44.2199 168.269 44.7723 168.269 45.4091V46.2084H163.707L163.688 46.2409C163.697 46.6915 163.775 47.0922 163.922 47.4431C164.073 47.7897 164.29 48.0626 164.572 48.2619C164.853 48.4612 165.191 48.5608 165.585 48.5608C166.019 48.5608 166.398 48.5002 166.723 48.3789C167.052 48.2533 167.336 48.0821 167.574 47.8655L168.074 48.6973C167.823 48.9399 167.489 49.1457 167.074 49.3147C166.662 49.4793 166.166 49.5616 165.585 49.5616ZM163.746 45.2076H166.989V45.0387C166.989 44.7008 166.928 44.3997 166.807 44.1354C166.69 43.8668 166.513 43.6567 166.274 43.5051C166.04 43.3491 165.746 43.2711 165.391 43.2711C165.105 43.2711 164.845 43.3556 164.611 43.5245C164.377 43.6892 164.184 43.9145 164.032 44.2004C163.881 44.4863 163.781 44.8112 163.733 45.1752L163.746 45.2076ZM169.39 49.4251V48.6063L170.449 48.4244V43.4011L169.39 43.2191V42.3938H171.593L171.704 43.2906L171.717 43.4141C171.916 43.0545 172.161 42.7729 172.451 42.5693C172.746 42.3657 173.081 42.2638 173.458 42.2638C173.592 42.2638 173.729 42.2768 173.868 42.3028C174.011 42.3245 174.112 42.3462 174.173 42.3678L174.004 43.557L173.114 43.5051C172.776 43.4834 172.492 43.5614 172.262 43.739C172.033 43.9123 171.855 44.1462 171.73 44.4408V48.4244L172.789 48.6063V49.4251H169.39Z" fill="black"/>
<g clip-path="url(#clip0_85_233)">
<path d="M47.0565 0H12.2283C9.43949 0 7.17053 2.26895 7.17053 5.05777V52.1783C7.17053 53.5017 8.02971 54.6275 9.21925 55.0293V56.2757C9.21925 57.9349 10.5691 59.2848 12.2283 59.2848H47.0565C48.7157 59.2848 50.0656 57.9349 50.0656 56.2757V55.0293C51.2551 54.6275 52.1143 53.5017 52.1143 52.1783V5.05777C52.1143 2.26895 49.8453 0 47.0565 0ZM12.2283 1.92067H47.0565C48.7864 1.92067 50.1936 3.32801 50.1936 5.05777V12.2923H9.0912V5.05777C9.0912 3.32801 10.4984 1.92067 12.2283 1.92067ZM47.0565 57.3641H12.2283C11.6282 57.3641 11.1399 56.8759 11.1399 56.2757V55.1873H48.1449V56.2757C48.1449 56.8759 47.6566 57.3641 47.0565 57.3641ZM49.1052 53.2667H10.1796C9.57944 53.2667 9.0912 52.7784 9.0912 52.1783V14.213H50.1936V52.1783C50.1936 52.7784 49.7054 53.2667 49.1052 53.2667Z" fill="black"/>
<path d="M29.6424 17.4141C20.6404 17.4141 13.3167 24.7377 13.3167 33.7398C13.3167 42.7419 20.6404 50.0655 29.6424 50.0655C38.6445 50.0655 45.9681 42.7419 45.9681 33.7398C45.9681 24.7377 38.6445 17.4141 29.6424 17.4141ZM29.6424 48.1449C21.6996 48.1449 15.2374 41.6828 15.2374 33.7398C15.2374 25.7968 21.6996 19.3348 29.6424 19.3348C37.5853 19.3348 44.0475 25.7968 44.0475 33.7398C44.0475 41.6828 37.5853 48.1449 29.6424 48.1449Z" fill="black"/>
<path d="M35.7886 10.1155C37.4478 10.1155 38.7976 8.76569 38.7976 7.10648C38.7976 5.44728 37.4478 4.09743 35.7886 4.09743C34.1294 4.09743 32.7795 5.44728 32.7795 7.10648C32.7795 8.76569 34.1294 10.1155 35.7886 10.1155ZM35.7886 6.0181C36.3887 6.0181 36.877 6.50634 36.877 7.10648C36.877 7.70663 36.3887 8.19486 35.7886 8.19486C35.1884 8.19486 34.7002 7.70663 34.7002 7.10648C34.7002 6.50634 35.1884 6.0181 35.7886 6.0181Z" fill="black"/>
<path d="M43.9834 10.1155C45.6426 10.1155 46.9925 8.76569 46.9925 7.10648C46.9925 5.44728 45.6426 4.09743 43.9834 4.09743C42.3242 4.09743 40.9744 5.44728 40.9744 7.10648C40.9744 8.76569 42.3242 10.1155 43.9834 10.1155ZM43.9834 6.0181C44.5836 6.0181 45.0718 6.50634 45.0718 7.10648C45.0718 7.70663 44.5836 8.19486 43.9834 8.19486C43.3833 8.19486 42.895 7.70663 42.895 7.10648C42.895 6.50634 43.3833 6.0181 43.9834 6.0181Z" fill="black"/>
<path d="M14.2771 10.1155H27.5937C28.6881 10.1155 29.5784 9.22524 29.5784 8.13084V6.08212C29.5784 4.98772 28.6881 4.09743 27.5937 4.09743H14.2771C13.1827 4.09743 12.2924 4.98772 12.2924 6.08212V8.13084C12.2924 9.22524 13.1827 10.1155 14.2771 10.1155ZM14.213 6.08212C14.213 6.04678 14.2418 6.0181 14.2771 6.0181H27.5937C27.6289 6.0181 27.6577 6.04678 27.6577 6.08212V8.13084C27.6577 8.16618 27.6289 8.19486 27.5937 8.19486H14.2771C14.2418 8.19486 14.213 8.16618 14.213 8.13084V6.08212Z" fill="black"/>
<path d="M29.6424 21.5115C22.8997 21.5115 17.4141 26.9971 17.4141 33.7398C17.4141 40.4825 22.8997 45.9681 29.6424 45.9681C36.3851 45.9681 41.8707 40.4825 41.8707 33.7398C41.8707 26.9971 36.3851 21.5115 29.6424 21.5115ZM29.6424 44.0474C23.9588 44.0474 19.3348 39.4235 19.3348 33.7398C19.3348 28.0562 23.9588 23.4322 29.6424 23.4322C35.3261 23.4322 39.95 28.0562 39.95 33.7398C39.95 39.4235 35.3261 44.0474 29.6424 44.0474Z" fill="black"/>
<path d="M29.6424 25.609C29.1119 25.609 28.6821 26.039 28.6821 26.5693C28.6821 27.0997 29.1119 27.5297 29.6424 27.5297C33.0667 27.5297 35.8526 30.3155 35.8526 33.7398C35.8526 34.2702 36.2824 34.7002 36.8129 34.7002C37.3434 34.7002 37.7733 34.2702 37.7733 33.7398C37.7733 29.2565 34.1258 25.609 29.6424 25.609Z" fill="black"/>
</g>
<rect x="61.2206" y="34.6029" width="109.858" height="0.967914" fill="black"/>
<defs>
<clipPath id="clip0_85_233">
<rect width="59.2848" height="59.2848" fill="white"/>
</clipPath>
</defs>
</svg>
