<svg width="68" height="45" viewBox="0 0 68 45" fill="none" xmlns="http://www.w3.org/2000/svg">
<rect x="0.231445" y="0.0627441" width="67.4282" height="44.5896" rx="5.43776" fill="#71B5DC"/>
<path d="M41.8823 13.6526C38.1586 13.6526 34.8309 15.5671 34.8309 19.1043C34.8309 23.1608 40.7327 23.441 40.7327 25.4789C40.7327 26.337 39.7413 27.1051 38.0482 27.1051C35.6452 27.1051 33.8493 26.0318 33.8493 26.0318L33.0808 29.6013C33.0808 29.6013 35.1497 30.5078 37.8965 30.5078C41.9677 30.5078 45.1713 28.4993 45.1713 24.9016C45.1713 20.6152 39.2449 20.3433 39.2449 18.4518C39.2449 17.7797 40.0587 17.0432 41.747 17.0432C43.652 17.0432 45.2062 17.8237 45.2062 17.8237L45.9582 14.3762C45.9582 14.3762 44.2671 13.6526 41.8823 13.6526V13.6526ZM7.81368 13.9128L7.72351 14.4332C7.72351 14.4332 9.29009 14.7175 10.7011 15.2849C12.5178 15.9354 12.6472 16.3141 12.9532 17.4904L16.2873 30.2395H20.7567L27.6421 13.9128H23.183L18.7587 25.0134L16.9533 15.604C16.7877 14.5271 15.9491 13.9128 14.9225 13.9128H7.81368V13.9128ZM29.4352 13.9128L25.9372 30.2395H30.1893L33.6751 13.9128H29.4352V13.9128ZM53.1511 13.9128C52.1257 13.9128 51.5824 14.4573 51.1838 15.4089L44.9541 30.2395H49.4132L50.276 27.7678H55.7085L56.2331 30.2395H60.1677L56.7352 13.9128H53.1511V13.9128ZM53.731 18.3238L55.0528 24.4504H51.5117L53.731 18.3238V18.3238Z" fill="white"/>
</svg>
